<?xml version="1.0" encoding="UTF-8"?>
<svg version="1.1" xmlns="http://www.w3.org/2000/svg" width="512" height="512">
<path d="M0 0 C7.4811551 6.16357853 12.12979509 13.7118603 14.3671875 23.15625 C15.08672607 23.10275391 15.80626465 23.04925781 16.54760742 22.99414062 C36.43924557 21.80952694 36.43924557 21.80952694 42.69726562 25.54833984 C46.59881719 29.12276131 49.32764196 33.45744608 52.02001953 37.97851562 C54.1440903 41.41213492 56.6933992 44.47051309 59.2421875 47.59375 C60.07601774 48.652513 60.90681775 49.71367042 61.734375 50.77734375 C62.16838623 51.30062256 62.60239746 51.82390137 63.04956055 52.36303711 C64.3671875 54.15625 64.3671875 54.15625 65.50708008 56.52954102 C67.19867171 59.57585098 68.47091555 61.17117359 71.3671875 63.15625 C78.14864298 64.82686847 85.37588785 64.32343938 92.3046875 64.21875 C94.24805763 64.22182675 96.19142584 64.22894635 98.13476562 64.24023438 C102.88016217 64.25901887 107.62224764 64.22253517 112.3671875 64.15625 C112.3530481 63.2314106 112.3530481 63.2314106 112.33862305 62.28788757 C112.3312915 61.47834122 112.32395996 60.66879486 112.31640625 59.8347168 C112.30226685 58.6314399 112.30226685 58.6314399 112.2878418 57.40385437 C112.38869602 54.54698391 113.07321463 52.50987436 114.3671875 49.96875 C114.9240625 48.80279297 114.9240625 48.80279297 115.4921875 47.61328125 C120.72817097 40.75196125 129.23230338 36.68460741 136.5546875 32.40625 C137.52599609 31.83003906 138.49730469 31.25382812 139.49804688 30.66015625 C148.82618731 25.17451917 155.37590509 23.17288498 166.3671875 24.15625 C172.85833638 25.86337104 176.36482779 30.03418252 180.3671875 35.15625 C183.84433735 38.82657484 185.10739159 40.06841562 190.2890625 40.4296875 C191.89829736 40.46965194 193.50770024 40.50323677 195.1171875 40.53125 C195.91640625 40.56863281 196.715625 40.60601562 197.5390625 40.64453125 C201.69649149 40.70607214 204.46924131 40.5333358 207.765625 37.85546875 C209.73080019 35.81652572 211.55222075 33.85578624 213.2421875 31.59375 C217.24618186 26.87953556 221.11900145 24.75048486 227.20703125 23.63671875 C237.4546083 22.88936764 244.80282375 27.18536839 253.3671875 32.15625 C254.0576416 32.54619141 254.7480957 32.93613281 255.45947266 33.33789062 C257.50032498 34.49151983 259.53008716 35.66185505 261.5546875 36.84375 C262.16618652 37.19945068 262.77768555 37.55515137 263.40771484 37.92163086 C269.81419177 41.79247099 275.28786023 46.95793182 278.1171875 54.03125 C278.5116469 57.38415489 278.3671875 60.78022135 278.3671875 64.15625 C291.8971875 64.15625 305.4271875 64.15625 319.3671875 64.15625 C320.0271875 62.83625 320.6871875 61.51625 321.3671875 60.15625 C322.98225594 57.99712852 324.61837312 55.88300774 326.3046875 53.78125 C327.29835793 52.53139375 328.2918421 51.28138941 329.28515625 50.03125 C329.79481934 49.391875 330.30448242 48.7525 330.82958984 48.09375 C332.32783375 46.20583897 333.81288961 44.30842394 335.29296875 42.40625 C335.76677979 41.7982959 336.24059082 41.1903418 336.72875977 40.56396484 C337.62002947 39.41959147 338.50995921 38.27417251 339.39819336 37.12744141 C340.24739085 36.0409272 341.11099243 34.96552983 341.98803711 33.90136719 C343.43325686 32.12807002 343.43325686 32.12807002 344.77954102 29.98144531 C347.30058545 26.44924921 349.01517869 24.44261221 353.36181641 23.52197266 C356.87618528 23.36899724 360.29298965 23.45700473 363.8046875 23.65625 C365.01318359 23.69234375 366.22167969 23.7284375 367.46679688 23.765625 C370.43688752 23.85954091 373.40036885 23.9907371 376.3671875 24.15625 C376.54507813 22.56490234 376.54507813 22.56490234 376.7265625 20.94140625 C378.06526778 13.03161715 383.08810503 5.37740433 389.484375 0.5625 C399.40703351 -5.90466401 409.72034633 -8.10665528 421.3671875 -5.84375 C430.70176254 -3.52399698 438.22654707 2.07898748 443.29296875 10.26953125 C448.30619889 20.06866128 450.06070411 29.1987623 447.71875 40.203125 C443.92848606 51.67110307 436.93707081 58.59481663 426.3671875 64.15625 C418.19450319 67.70288659 407.85937459 67.32808134 399.4921875 64.53125 C389.73738294 60.44884281 382.07498388 53.72780214 377.9921875 43.90625 C376.89439186 41.03234596 376.3671875 39.25951309 376.3671875 36.15625 C364.87661888 34.92772432 364.87661888 34.92772432 354.30517578 38.56445312 C350.51464916 42.25983293 347.61835667 46.58904446 344.76367188 51.02587891 C342.68717982 54.19361836 340.34125816 57.12631445 337.9921875 60.09375 C335.74434539 63.03351745 333.50262825 65.97776024 331.265625 68.92578125 C330.63914062 69.74433594 330.01265625 70.56289062 329.3671875 71.40625 C328.8309375 72.11265625 328.2946875 72.8190625 327.7421875 73.546875 C326.3671875 75.15625 326.3671875 75.15625 324.3671875 76.15625 C322.7644777 76.27481636 321.15713397 76.33331124 319.55029297 76.36157227 C318.54940643 76.38151749 317.5485199 76.40146271 316.51730347 76.42201233 C315.43393707 76.43872482 314.35057068 76.45543732 313.234375 76.47265625 C312.12740265 76.49343735 311.0204303 76.51421844 309.87991333 76.53562927 C306.33406951 76.60115991 302.78814996 76.66002614 299.2421875 76.71875 C296.84244 76.76193187 294.44270023 76.80554605 292.04296875 76.84960938 C286.15112237 76.95684488 280.25920019 77.05860472 274.3671875 77.15625 C274.99465806 82.26484658 275.83049851 85.58670866 278.6796875 89.90625 C279.27394531 90.82921875 279.86820312 91.7521875 280.48046875 92.703125 C283.07031785 96.07046503 284.88256423 97.85508357 289.1015625 98.7109375 C290.09671875 98.81664062 291.091875 98.92234375 292.1171875 99.03125 C300.43644191 100.27610194 305.97910364 103.75581478 311.1796875 110.35546875 C315.52157749 116.93971641 314.3671875 123.21579851 314.3671875 131.15625 C334.8271875 131.15625 355.2871875 131.15625 376.3671875 131.15625 C376.6971875 128.84625 377.0271875 126.53625 377.3671875 124.15625 C381.26249193 114.34385683 387.23773528 108.04806277 396.5546875 103.28125 C406.71996231 99.04103868 417.13442299 99.22388328 427.3671875 103.15625 C437.16726215 108.07922042 443.76728201 115.85974612 447.3671875 126.15625 C450.03082809 134.71541509 449.13986382 145.08833071 445.3671875 153.15625 C440.12282328 162.42386422 432.84525421 169.40483072 422.4921875 172.59375 C411.67768207 174.56203422 401.59326355 173.50945901 392.1171875 167.80078125 C384.11299349 162.14630328 379.17261897 155.59570178 376.3671875 146.15625 C376.3671875 145.16625 376.3671875 144.17625 376.3671875 143.15625 C355.9071875 143.15625 335.4471875 143.15625 314.3671875 143.15625 C314.3671875 147.11625 314.3671875 151.07625 314.3671875 155.15625 C312.5801157 161.74019875 309.97404574 166.81905639 304.13671875 170.6015625 C299.26635944 173.24439313 295.13280675 174.7120408 289.5703125 174.72265625 C286.11825304 175.40205093 284.08704644 176.95038015 281.3671875 179.15625 C279.85477381 181.5476495 278.65264138 183.67893844 277.4921875 186.21875 C277.18539063 186.84330078 276.87859375 187.46785156 276.5625 188.11132812 C275.19456186 190.97239517 274.3671875 192.94872829 274.3671875 196.15625 C274.96551895 196.15545441 275.5638504 196.15465881 276.18031311 196.15383911 C282.42663845 196.15139508 288.67172585 196.19070452 294.91772461 196.25390625 C297.2464421 196.27203738 299.57526696 196.27964002 301.90405273 196.27636719 C305.25848997 196.27350198 308.61071374 196.3089042 311.96484375 196.3515625 C313.00052994 196.34246857 314.03621613 196.33337463 315.10328674 196.32400513 C321.17931797 196.44526426 324.62946393 197.241031 328.9941864 201.58517456 C331.14390457 204.04501922 333.17340245 206.52878883 335.1171875 209.15625 C335.96923255 210.29358318 336.82212947 211.43027855 337.67578125 212.56640625 C338.33102783 213.44449951 338.33102783 213.44449951 338.99951172 214.34033203 C341.34867747 217.45941358 343.76442085 220.52575302 346.1796875 223.59375 C346.62344727 224.16029297 347.06720703 224.72683594 347.52441406 225.31054688 C349.69409936 228.07196452 351.89936412 230.78038159 354.19140625 233.44140625 C356.3671875 236.15625 356.3671875 236.15625 356.3671875 238.15625 C362.9671875 238.15625 369.5671875 238.15625 376.3671875 238.15625 C376.6971875 235.84625 377.0271875 233.53625 377.3671875 231.15625 C380.20098577 222.76150351 386.49725875 215.56134944 394.13671875 211.1875 C405.22654078 206.06015672 414.84468507 206.09567227 426.28125 209.89453125 C436.04064874 213.88476643 442.57874997 221.47738784 446.60546875 231.04296875 C449.95515321 240.3361959 449.45007938 251.17388786 445.3671875 260.15625 C440.42073233 269.27971176 433.40895837 275.63835632 423.5546875 279.09375 C413.41731618 281.63603748 403.70452564 280.86868784 394.3671875 276.15625 C385.21128032 270.64045175 379.4182943 263.422327 376.3671875 253.15625 C376.3671875 252.16625 376.3671875 251.17625 376.3671875 250.15625 C375.27047729 250.19552612 375.27047729 250.19552612 374.15161133 250.2355957 C370.82785668 250.33975144 367.50444556 250.40463621 364.1796875 250.46875 C363.02919922 250.51064453 361.87871094 250.55253906 360.69335938 250.59570312 C352.17080583 250.71921839 352.17080583 250.71921839 348.484375 248.13671875 C347.78570312 247.15316406 347.08703125 246.16960937 346.3671875 245.15625 C345.30808801 243.90005314 344.24099348 242.65057319 343.16796875 241.40625 C342.00187084 239.99232925 340.83924439 238.57553998 339.6796875 237.15625 C339.06826904 236.41093018 338.45685059 235.66561035 337.8269043 234.89770508 C323.37300022 217.20240475 323.37300022 217.20240475 321.32177734 213.02954102 C318.10652346 209.94802177 314.3932564 210.55285241 310.10546875 210.546875 C309.19967575 210.53033875 308.29388275 210.51380249 307.36064148 210.49676514 C304.46692198 210.4481713 301.57372837 210.42688915 298.6796875 210.40625 C296.71807234 210.37809981 294.75648179 210.34817373 292.79492188 210.31640625 C287.98572037 210.24240935 283.17681276 210.19290439 278.3671875 210.15625 C278.38467041 211.41937012 278.40215332 212.68249023 278.42016602 213.98388672 C278.46989359 217.57664655 277.96925212 220.03775752 276.3046875 223.28125 C275.92183594 224.06757813 275.53898437 224.85390625 275.14453125 225.6640625 C270.63851509 231.98238846 264.22628162 235.6344741 257.4921875 239.21875 C256.74066406 239.62673828 255.98914063 240.03472656 255.21484375 240.45507812 C253.70079891 241.27702528 252.18419661 242.09427951 250.66503906 242.90673828 C249.0877444 243.76442996 247.52238279 244.64432501 245.96777344 245.54248047 C244.80036621 246.21561279 244.80036621 246.21561279 243.609375 246.90234375 C242.91440918 247.31025146 242.21944336 247.71815918 241.50341797 248.13842773 C235.54278792 250.9784125 229.03610772 250.8224666 222.8046875 248.96875 C216.26793392 246.58266847 212.26328154 242.50071245 208.640625 236.70703125 C206.97609821 234.67998482 205.86504398 234.02073278 203.3671875 233.15625 C200.67428934 232.93821303 198.11953627 232.83148998 195.4296875 232.84375 C194.72650391 232.82763672 194.02332031 232.81152344 193.29882812 232.79492188 C188.76315033 232.79067101 185.93133564 233.33206341 182.3671875 236.15625 C180.9236857 237.76043846 179.52934516 239.40984316 178.1796875 241.09375 C172.93801403 247.05811267 167.34981764 250.11015458 159.3671875 250.65625 C149.92027143 249.93206996 141.16244454 244.04494664 133.1796875 239.40625 C132.13876953 238.82359375 131.09785156 238.2409375 130.02539062 237.640625 C122.7933929 233.45295394 117.21029126 228.97716508 112.9296875 221.71875 C112.3671875 219.15625 112.3671875 219.15625 112.3671875 210.15625 C98.5071875 210.15625 84.6471875 210.15625 70.3671875 210.15625 C69.7071875 211.47625 69.0471875 212.79625 68.3671875 214.15625 C66.77354436 216.29538747 65.15867139 218.38812069 63.4921875 220.46875 C63.01185059 221.07396484 62.53151367 221.67917969 62.03662109 222.30273438 C60.48383145 224.25687429 58.92570221 226.20667415 57.3671875 228.15625 C56.2941122 229.50377994 55.22119556 230.85143624 54.1484375 232.19921875 C51.23066104 235.85914276 48.31108965 239.51728936 45.3671875 243.15625 C44.90795898 243.72859375 44.44873047 244.3009375 43.97558594 244.890625 C40.59899884 249.04034433 40.59899884 249.04034433 38.3671875 250.15625 C36.4807963 250.241165 34.59140235 250.263443 32.703125 250.25390625 C31.58164063 250.25068359 30.46015625 250.24746094 29.3046875 250.24414062 C27.54125 250.23157227 27.54125 250.23157227 25.7421875 250.21875 C24.55882813 250.21423828 23.37546875 250.20972656 22.15625 250.20507812 C19.22651243 250.19326467 16.29687478 250.17679258 13.3671875 250.15625 C13.23957031 251.22617187 13.11195312 252.29609375 12.98046875 253.3984375 C11.55604625 262.12642759 6.73601865 268.5468045 -0.2578125 273.78125 C-9.14423484 279.73580161 -18.01243021 281.29506208 -28.6328125 280.15625 C-38.87071878 277.79057192 -47.80015815 271.98311564 -53.6328125 263.15625 C-58.80272698 252.61821346 -60.10089444 242.4324707 -56.6328125 231.15625 C-53.17380728 221.96120598 -46.5962606 214.30047119 -37.6328125 210.15625 C-25.80485524 205.81057089 -16.30196389 206.3851919 -4.6328125 211.15625 C4.23276834 216.16660269 9.94959254 223.67461474 13.3671875 233.15625 C13.70908584 234.48741281 14.04368106 235.82049835 14.3671875 237.15625 C25.16778337 238.93264367 25.16778337 238.93264367 35.26757812 235.90966797 C38.79433761 232.48017677 41.40120076 228.39419237 44.00976562 224.24755859 C46.15872581 220.93676849 48.63909776 217.91106872 51.1171875 214.84375 C52.02016025 213.69943784 52.9212526 212.55363895 53.8203125 211.40625 C54.24763672 210.86226562 54.67496094 210.31828125 55.11523438 209.7578125 C56.32618293 208.20870515 57.52656829 206.65135838 58.7265625 205.09375 C59.78617188 203.7325 59.78617188 203.7325 60.8671875 202.34375 C61.475625 201.55355469 62.0840625 200.76335937 62.7109375 199.94921875 C64.81738209 197.66889312 66.5198709 197.20212752 69.58818054 197.03599548 C70.45199844 197.03821609 71.31581635 197.04043671 72.20581055 197.04272461 C73.67699593 197.04283791 73.67699593 197.04283791 75.17790222 197.04295349 C76.23423355 197.04811478 77.29056488 197.05327606 78.37890625 197.05859375 C80.00394829 197.06071617 80.00394829 197.06071617 81.66181946 197.06288147 C85.12613675 197.06848441 88.5903897 197.08103742 92.0546875 197.09375 C94.40169178 197.09876462 96.74869706 197.10332759 99.09570312 197.10742188 C104.85288658 197.11845479 110.61003244 197.1351958 116.3671875 197.15625 C116.06611084 195.89530518 115.76503418 194.63436035 115.45483398 193.33520508 C115.28547836 192.62592361 115.11612274 191.91664215 114.94163513 191.18586731 C114.16868772 188.45491785 112.93297155 186.24211921 111.4296875 183.84375 C110.67365234 182.61205078 110.67365234 182.61205078 109.90234375 181.35546875 C106.99423757 177.17917505 106.99423757 177.17917505 102.29296875 175.3828125 C101.10058594 175.18429687 99.90820312 174.98578125 98.6796875 174.78125 C89.58975879 172.97263532 83.67255306 169.80221802 78.3671875 162.15625 C76.3671875 156.15625 76.3671875 156.15625 76.3671875 143.15625 C55.5771875 143.15625 34.7871875 143.15625 13.3671875 143.15625 C13.0371875 145.46625 12.7071875 147.77625 12.3671875 150.15625 C8.70077227 160.38267288 1.72261933 166.12687601 -7.6328125 171.15625 C-15.78913366 174.70996383 -26.15875656 174.29343531 -34.4453125 171.53125 C-42.99002 167.9916546 -50.71942321 162.09472401 -54.85546875 153.6640625 C-58.91265075 143.86284148 -60.04237769 134.33576916 -56.6328125 124.15625 C-51.99335135 113.33592777 -45.50180042 106.64182921 -34.6171875 102.1015625 C-24.34657564 98.84830586 -13.76877057 99.57157216 -4.12890625 104.4140625 C5.77413439 110.54691001 11.5645921 118.94586841 14.3671875 130.15625 C34.8271875 130.48625 55.2871875 130.81625 76.3671875 131.15625 C76.3671875 126.53625 76.3671875 121.91625 76.3671875 117.15625 C78.67760568 110.8026 81.15562959 106.17379347 86.78515625 102.3203125 C91.27172631 100.29762282 96.03614837 99.72795996 100.87890625 99.08984375 C106.75586872 97.5169501 109.56631556 93.30716009 112.6171875 88.28125 C113.11734375 87.47945313 113.6175 86.67765625 114.1328125 85.8515625 C115.6072423 82.63207971 115.923296 79.65356144 116.3671875 76.15625 C115.43876793 76.18955917 115.43876793 76.18955917 114.49159241 76.22354126 C108.01899272 76.44567681 101.54748316 76.59595401 95.07202148 76.70556641 C92.65946442 76.75569662 90.24720878 76.82382277 87.83569336 76.91064453 C66.69057737 77.65257843 66.69057737 77.65257843 61.89916992 74.10327148 C59.59631296 71.56696052 57.98047404 69.16756676 56.3671875 66.15625 C55.50862265 65.04055459 54.6303663 63.93937248 53.72265625 62.86328125 C53.00722656 61.90808594 52.29179688 60.95289063 51.5546875 59.96875 C48.77971432 56.28694119 45.97118256 52.64329393 43.06640625 49.0625 C42.51380127 48.38082764 41.96119629 47.69915527 41.3918457 46.99682617 C40.30699312 45.66311737 39.2183866 44.33245176 38.12573242 43.00512695 C34.3671875 38.37537566 34.3671875 38.37537566 34.3671875 36.15625 C24.4671875 36.65125 24.4671875 36.65125 14.3671875 37.15625 C13.8515625 38.785625 13.3359375 40.415 12.8046875 42.09375 C8.84011229 52.81737532 2.40788486 58.87325228 -7.6328125 64.15625 C-15.80549681 67.70288659 -26.14062541 67.32808134 -34.5078125 64.53125 C-44.1865707 60.48066838 -51.90347415 53.79540429 -55.9453125 44.03125 C-59.32235538 35.11129708 -59.62417376 26.2228501 -56.6328125 17.15625 C-52.22089839 7.43071671 -46.33520913 0.75710754 -36.6328125 -3.84375 C-24.10147395 -8.5112931 -11.08596769 -7.76346699 0 0 Z " fill="#010100" transform="translate(60.6328125,118.84375)"/>
<path d="M0 0 C3.40195753 1.92284556 4.76648353 3.62154227 6.8125 6.9375 C10.14780681 11.60692954 14.59225502 14.19741834 20 16 C23.55753965 16.28197401 27.12002073 16.27759316 30.6875 16.3125 C31.65623047 16.34150391 32.62496094 16.37050781 33.62304688 16.40039062 C39.93905352 16.45590657 44.83833677 15.83099659 50 12 C52.45350806 9.5733864 54.50916792 6.87335869 56.51367188 4.0703125 C58.61738381 1.47818186 60.12605957 0.20060386 63.42822266 -0.55737305 C71.12480372 -0.99723613 76.36288382 1.68734574 82.75 5.6875 C83.64332031 6.21794922 84.53664063 6.74839844 85.45703125 7.29492188 C100.85157883 16.53391766 100.85157883 16.53391766 102 21 C102.37168615 25.53457107 102.47472641 28.01098664 100.5 32.125 C97.85513611 37.86850345 97.93475804 43.86567563 99 50 C102.63643843 59.6483281 107.93660502 67.10210323 116.625 72.6875 C120.72939803 74.28365479 124.62372616 74.64247861 129 74.984375 C132.60189512 76.20376658 134.48499991 77.36038096 136.83105469 80.3515625 C139.33439139 86.02328274 138.79670166 92.53686788 138.67236328 98.63427734 C138.62498132 101.12598236 138.63127831 103.61342457 138.64453125 106.10546875 C138.63338107 107.69794204 138.61916339 109.29039744 138.6015625 110.8828125 C138.60338531 111.62250275 138.60520813 112.36219299 138.60708618 113.1242981 C138.47334928 118.01929463 137.46794618 120.55075552 134 124 C131.02967288 125.94399458 128.23595722 126.38696599 124.75 126.875 C116.92757524 128.26888952 112.09466154 130.06366868 107.3125 136.625 C106.18243532 138.40044566 105.07779172 140.19234448 104 142 C103.48953125 142.79792969 102.9790625 143.59585938 102.453125 144.41796875 C98.56073904 151.12030749 98.03695274 157.35581239 99 165 C99.62756339 167.06869637 99.62756339 167.06869637 100.5 168.8125 C102.74127162 173.5752022 102.86820014 177.56903961 101.0625 182.625 C95.73180356 188.76337771 87.37174908 192.73582131 80.4375 196.875 C79.63892578 197.37257813 78.84035156 197.87015625 78.01757812 198.3828125 C72.69536136 201.54057436 69.19425697 202.71136646 63 202 C58.87696143 200.02094148 56.67490774 197.67406061 54.125 194 C50.44633487 188.78774888 45.89790678 186.96596893 40 185 C31.1827694 184.11704751 21.00228765 183.43841961 13.21484375 188.16015625 C9.41352468 191.31786574 6.21111851 194.90835973 3.03125 198.671875 C0.40333987 201.6838643 -0.40419651 201.92201883 -4.40234375 202.4453125 C-10.57147122 202.35899205 -15.399631 198.94139089 -20.5625 195.875 C-22.06586914 195.02035156 -22.06586914 195.02035156 -23.59960938 194.1484375 C-37.43274661 186.13450678 -37.43274661 186.13450678 -40 181 C-40.48034044 176.46447775 -40.39641375 172.8754137 -38.5 168.6875 C-35.80549146 162.06349985 -35.85553953 156.11603839 -38.32421875 149.39453125 C-42.59734402 139.99239885 -47.74714511 131.57725696 -57.66796875 127.65625 C-60.0516057 126.98547779 -62.22098622 126.72831605 -64.6875 126.5625 C-69.55807863 126.2213036 -71.62582542 124.45852894 -75 121 C-76.58957359 117.82085283 -76.20533722 114.38015618 -76.23828125 110.88671875 C-76.246353 110.08015335 -76.25442474 109.27358795 -76.26274109 108.44258118 C-76.27658143 106.73363393 -76.28730382 105.02465904 -76.29516602 103.31567383 C-76.31236506 100.7079597 -76.35624794 98.10151813 -76.40039062 95.49414062 C-76.41051897 93.83334265 -76.41903463 92.1725339 -76.42578125 90.51171875 C-76.44328934 89.73446945 -76.46079742 88.95722015 -76.47883606 88.15641785 C-76.46381612 84.38837787 -76.15750215 82.24372934 -74.09179688 79.04711914 C-70.37340166 75.40814343 -67.40911748 74.80962859 -62.3125 74.25 C-55.99281232 73.1916057 -51.45239299 71.74815339 -47 67 C-40.67766935 57.7590964 -36.07263165 49.36026228 -37 38 C-37.62579249 35.86121613 -37.62579249 35.86121613 -38.5 33.9375 C-40.42774209 29.45480788 -40.99454535 24.80044332 -40 20 C-36.09809809 14.37005602 -30.97383685 11.58588903 -25.13916016 8.21411133 C-23.38693169 7.19444337 -21.65709398 6.14257858 -19.92578125 5.08789062 C-13.31356618 1.23519356 -7.76174468 -1.59806205 0 0 Z " fill="#F5BD4F" transform="translate(225,155)"/>
<path d="M0 0 C0.98162109 -0.02835938 1.96324219 -0.05671875 2.97460938 -0.0859375 C10.14418077 -0.10491717 15.75946893 1.35610055 21.6875 5.5 C26.68352402 10.90284224 28.80776855 14.74141778 28.84863281 22.12109375 C28.85608017 23.14083786 28.85608017 23.14083786 28.86367798 24.18118286 C28.87830108 26.4332988 28.88510073 28.68534437 28.890625 30.9375 C28.896375 32.49926761 28.90213275 34.06103518 28.90789795 35.62280273 C28.91840744 38.89795257 28.92425088 42.17307786 28.92773438 45.44824219 C28.93322828 49.65188991 28.95727529 53.85521521 28.98570633 58.0587616 C29.00429478 61.28431154 29.0095362 64.50978309 29.01107025 67.73538208 C29.0141044 69.28559132 29.02215845 70.83579893 29.03525543 72.38595581 C29.05224242 74.55052549 29.05045469 76.71429764 29.04394531 78.87890625 C29.04941376 80.72850952 29.04941376 80.72850952 29.05499268 82.61547852 C28.93372009 83.56737061 28.81244751 84.5192627 28.6875 85.5 C25.46606724 87.64762184 24.4279533 88.061068 20.6875 87.5 C18.04545187 85.02531965 17.69390489 83.56723522 17.34692383 79.92480469 C17.34766896 78.50707284 17.36404858 77.0892793 17.39453125 75.671875 C17.39755249 75.00752441 17.40057373 74.34317383 17.40368652 73.65869141 C17.41932303 71.18896843 17.46120716 68.71946779 17.5 66.25 C17.561875 60.7225 17.62375 55.195 17.6875 49.5 C5.8075 49.5 -6.0725 49.5 -18.3125 49.5 C-18.19376534 61.25777466 -18.19376534 61.25777466 -18.04223633 73.01513672 C-18.0334764 74.48664703 -18.0258313 75.9581646 -18.01953125 77.4296875 C-18.00418335 78.19676025 -17.98883545 78.96383301 -17.97302246 79.75415039 C-17.97192383 81.96826172 -17.97192383 81.96826172 -18.3125 85.5 C-21.53393276 87.64762184 -22.5720467 88.061068 -26.3125 87.5 C-29.52951573 84.27894885 -29.69887809 81.68286628 -29.73242188 77.23779297 C-29.74833374 75.96902313 -29.76424561 74.7002533 -29.78063965 73.39303589 C-29.7819076 72.00942033 -29.78208332 70.62580339 -29.78125 69.2421875 C-29.78835707 67.81454165 -29.79605686 66.38689865 -29.80432129 64.95925903 C-29.81776601 61.96494625 -29.81933708 58.97089701 -29.81347656 55.9765625 C-29.80760735 52.16349999 -29.83805374 48.35172268 -29.87859344 44.538908 C-29.90462552 41.58748723 -29.9073335 38.63636851 -29.90370178 35.68484879 C-29.90538139 34.28079142 -29.91491094 32.87671832 -29.93284607 31.47277451 C-30.03931468 22.1011617 -29.29585273 14.18326547 -22.90515137 6.89498901 C-16.00056585 0.6262766 -8.88983803 -0.0230755 0 0 Z " fill="#060502" transform="translate(227.3125,211.5)"/>
<path d="M0 0 C5.82824956 3.27607022 10.38204727 7.61246841 12.90625 13.86328125 C14.88773005 21.22961681 15.02670138 28.63670468 11.3125 35.4375 C7.57446362 40.91519531 2.59633978 44.07683011 -3.25 47 C-11.61447472 47.61608029 -19.2776526 47.7753008 -26.1484375 42.55859375 C-32.21513927 37.04224678 -35.37263881 30.76938381 -35.8125 22.5625 C-35.52735441 15.776035 -33.11225775 10.22258948 -28.60546875 5.1484375 C-20.41190056 -2.36079204 -10.26933622 -4.62667203 0 0 Z " fill="#F4BC4F" transform="translate(483.25,233)"/>
<path d="M0 0 C5.82824956 3.27607022 10.38204727 7.61246841 12.90625 13.86328125 C14.88773005 21.22961681 15.02670138 28.63670468 11.3125 35.4375 C7.57446362 40.91519531 2.59633978 44.07683011 -3.25 47 C-11.61447472 47.61608029 -19.2776526 47.7753008 -26.1484375 42.55859375 C-32.21513927 37.04224678 -35.37263881 30.76938381 -35.8125 22.5625 C-35.52735441 15.776035 -33.11225775 10.22258948 -28.60546875 5.1484375 C-20.41190056 -2.36079204 -10.26933622 -4.62667203 0 0 Z " fill="#7CC3C2" transform="translate(49.25,233)"/>
<path d="M0 0 C5.82824956 3.27607022 10.38204727 7.61246841 12.90625 13.86328125 C14.88773005 21.22961681 15.02670138 28.63670468 11.3125 35.4375 C7.73364367 40.65701968 2.89533536 44.62950137 -3.1640625 46.6328125 C-10.06670316 47.84788408 -17.27466437 48.02803643 -23.4375 44.39453125 C-29.69030211 39.58364687 -34.50409789 33.43083787 -35.59765625 25.46875 C-36.03319101 17.51744871 -33.92504208 11.13769584 -28.60546875 5.1484375 C-20.41190056 -2.36079204 -10.26933622 -4.62667203 0 0 Z " fill="#F4BD4F" transform="translate(49.25,340)"/>
<path d="M0 0 C5.82824956 3.27607022 10.38204727 7.61246841 12.90625 13.86328125 C14.88773005 21.22961681 15.02670138 28.63670468 11.3125 35.4375 C7.57446362 40.91519531 2.59633978 44.07683011 -3.25 47 C-11.61447472 47.61608029 -19.2776526 47.7753008 -26.1484375 42.55859375 C-32.21513927 37.04224678 -35.37263881 30.76938381 -35.8125 22.5625 C-35.52735441 15.776035 -33.11225775 10.22258948 -28.60546875 5.1484375 C-20.41190056 -2.36079204 -10.26933622 -4.62667203 0 0 Z " fill="#7CC3C2" transform="translate(483.25,126)"/>
<path d="M0 0 C5.82824956 3.27607022 10.38204727 7.61246841 12.90625 13.86328125 C14.88773005 21.22961681 15.02670138 28.63670468 11.3125 35.4375 C7.57446362 40.91519531 2.59633978 44.07683011 -3.25 47 C-11.61447472 47.61608029 -19.2776526 47.7753008 -26.1484375 42.55859375 C-32.21513927 37.04224678 -35.37263881 30.76938381 -35.8125 22.5625 C-35.52735441 15.776035 -33.11225775 10.22258948 -28.60546875 5.1484375 C-20.41190056 -2.36079204 -10.26933622 -4.62667203 0 0 Z " fill="#EE7979" transform="translate(49.25,126)"/>
<path d="M0 0 C5.82824956 3.27607022 10.38204727 7.61246841 12.90625 13.86328125 C14.88773005 21.22961681 15.02670138 28.63670468 11.3125 35.4375 C7.73364367 40.65701968 2.89533536 44.62950137 -3.1640625 46.6328125 C-10.06670316 47.84788408 -17.27466437 48.02803643 -23.4375 44.39453125 C-29.69030211 39.58364687 -34.50409789 33.43083787 -35.59765625 25.46875 C-36.03319101 17.51744871 -33.92504208 11.13769584 -28.60546875 5.1484375 C-20.41190056 -2.36079204 -10.26933622 -4.62667203 0 0 Z " fill="#EE7979" transform="translate(483.25,340)"/>
<path d="M0 0 C0.76550171 -0.00428513 1.53100342 -0.00857025 2.31970215 -0.01298523 C3.93692028 -0.01872392 5.55416423 -0.01923217 7.17138672 -0.01489258 C9.64725653 -0.01173024 12.12193397 -0.03520406 14.59765625 -0.06054688 C16.16926932 -0.06281967 17.74088562 -0.06352346 19.3125 -0.0625 C20.05318726 -0.07170975 20.79387451 -0.08091949 21.55700684 -0.09040833 C26.64865175 -0.0444992 26.64865175 -0.0444992 29.11914062 1.63598633 C30.77487868 4.29382008 30.60006306 6.25749167 30.15625 9.30078125 C26.15625 12.30078125 26.15625 12.30078125 15.15625 12.30078125 C15.15625 33.42078125 15.15625 54.54078125 15.15625 76.30078125 C19.11625 76.30078125 23.07625 76.30078125 27.15625 76.30078125 C28.14625 76.96078125 29.13625 77.62078125 30.15625 78.30078125 C30.53735282 81.2860867 30.73946087 83.34747727 29.13671875 85.96728516 C26.0217134 88.06469137 22.7228705 87.72811943 19.09375 87.69921875 C17.91220337 87.70352402 17.91220337 87.70352402 16.70678711 87.70791626 C15.04247315 87.70995647 13.37813519 87.70442957 11.71386719 87.69189453 C9.16547053 87.67583934 6.61865979 87.69174369 4.0703125 87.7109375 C2.4531215 87.70895506 0.83593148 87.70511136 -0.78125 87.69921875 C-1.54381104 87.70529144 -2.30637207 87.71136414 -3.09204102 87.71762085 C-8.34162971 87.64778401 -8.34162971 87.64778401 -10.82421875 85.93212891 C-12.29903826 83.57227643 -12.25256245 82.02619757 -11.84375 79.30078125 C-10.85375 78.31078125 -9.86375 77.32078125 -8.84375 76.30078125 C-4.55375 76.30078125 -0.26375 76.30078125 4.15625 76.30078125 C4.15625 54.85078125 4.15625 33.40078125 4.15625 11.30078125 C-0.13375 11.30078125 -4.42375 11.30078125 -8.84375 11.30078125 C-9.83375 10.31078125 -10.82375 9.32078125 -11.84375 8.30078125 C-11.71875 5.23828125 -11.71875 5.23828125 -10.84375 2.30078125 C-7.14380442 -0.16584914 -4.28293703 -0.00527011 0 0 Z " fill="#040301" transform="translate(282.84375,211.69921875)"/>
<path d="M0 0 C1.56911133 -0.04350586 1.56911133 -0.04350586 3.16992188 -0.08789062 C10.91086828 -0.15194683 10.91086828 -0.15194683 14.85546875 2.20703125 C17.5258477 5.27597422 17.81033749 6.90417677 17.78515625 10.8828125 C17.78265869 11.68992676 17.78016113 12.49704102 17.77758789 13.32861328 C17.76848389 14.3545459 17.75937988 15.38047852 17.75 16.4375 C17.729375 19.69625 17.70875 22.955 17.6875 26.3125 C6.1375 26.3125 -5.4125 26.3125 -17.3125 26.3125 C-17.395 23.115625 -17.4775 19.91875 -17.5625 16.625 C-17.59891602 15.62637939 -17.63533203 14.62775879 -17.67285156 13.59887695 C-17.72619006 9.32964605 -17.70098656 6.94579731 -15.421875 3.23046875 C-10.90054592 -0.88059158 -5.84029903 0.05338482 0 0 Z " fill="#F5BE4F" transform="translate(227.3125,223.6875)"/>
</svg>
